<svg width="24" height="24" viewBox="0 0 24 24" fill="none" xmlns="http://www.w3.org/2000/svg">
<g clip-path="url(#clip0_6001_84325)">
<path fill-rule="evenodd" clip-rule="evenodd" d="M6.75 1.875H5.625C4.63125 1.875 3.67502 2.27024 2.97377 2.97337C2.26877 3.67649 1.875 4.6305 1.875 5.625V6.75H0.75C0.3375 6.75 0 7.086 0 7.5C0 7.914 0.3375 8.25 0.75 8.25H1.875V9.75H0.75C0.3375 9.75 0 10.086 0 10.5C0 10.914 0.3375 11.25 0.75 11.25H1.875V12.75H0.75C0.3375 12.75 0 13.086 0 13.5C0 13.914 0.3375 14.25 0.75 14.25H1.875V15.75H0.75C0.3375 15.75 0 16.086 0 16.5C0 16.914 0.3375 17.25 0.75 17.25H1.875V18.375C1.875 19.3695 2.26877 20.3235 2.97377 21.0266C3.67502 21.7298 4.63125 22.125 5.625 22.125H6.75V23.25C6.75 23.664 7.0875 24 7.5 24C7.9125 24 8.25 23.664 8.25 23.25V22.125H9.75V23.25C9.75 23.664 10.0875 24 10.5 24C10.9125 24 11.25 23.664 11.25 23.25V22.125H12.75V23.25C12.75 23.664 13.0875 24 13.5 24C13.9125 24 14.25 23.664 14.25 23.25V22.125H15.75V23.25C15.75 23.664 16.0875 24 16.5 24C16.9125 24 17.25 23.664 17.25 23.25V22.125H18.375C19.3687 22.125 20.325 21.7298 21.0262 21.0266C21.7312 20.3235 22.125 19.3695 22.125 18.375V17.25H23.25C23.6625 17.25 24 16.914 24 16.5C24 16.086 23.6625 15.75 23.25 15.75H22.125V14.25H23.25C23.6625 14.25 24 13.914 24 13.5C24 13.086 23.6625 12.75 23.25 12.75H22.125V11.25H23.25C23.6625 11.25 24 10.914 24 10.5C24 10.086 23.6625 9.75 23.25 9.75H22.125V8.25H23.25C23.6625 8.25 24 7.914 24 7.5C24 7.086 23.6625 6.75 23.25 6.75H22.125V5.625C22.125 4.6305 21.7312 3.67649 21.0262 2.97337C20.325 2.27024 19.3687 1.875 18.375 1.875H17.25V0.75C17.25 0.336 16.9125 0 16.5 0C16.0875 0 15.75 0.336 15.75 0.75V1.875H14.25V0.75C14.25 0.336 13.9125 0 13.5 0C13.0875 0 12.75 0.336 12.75 0.75V1.875H11.25V0.75C11.25 0.336 10.9125 0 10.5 0C10.0875 0 9.75 0.336 9.75 0.75V1.875H8.25V0.75C8.25 0.336 7.9125 0 7.5 0C7.0875 0 6.75 0.336 6.75 0.75V1.875ZM20.625 5.625V18.375C20.625 18.9716 20.3887 19.5439 19.965 19.9661C19.545 20.388 18.9713 20.625 18.375 20.625H5.625C5.02875 20.625 4.455 20.388 4.035 19.9661C3.61125 19.5439 3.375 18.9716 3.375 18.375V5.625C3.375 5.02838 3.61125 4.45612 4.035 4.03387C4.455 3.612 5.02875 3.375 5.625 3.375H18.375C18.9713 3.375 19.545 3.612 19.965 4.03387C20.3887 4.45612 20.625 5.02838 20.625 5.625ZM19.875 5.625C19.875 5.22713 19.7175 4.84575 19.4362 4.5645C19.155 4.28287 18.7725 4.125 18.375 4.125C15.9113 4.125 8.08875 4.125 5.625 4.125C5.2275 4.125 4.84502 4.28287 4.56377 4.5645C4.28252 4.84575 4.125 5.22713 4.125 5.625V18.375C4.125 18.7729 4.28252 19.1543 4.56377 19.4355C4.84502 19.7171 5.2275 19.875 5.625 19.875H18.375C18.7725 19.875 19.155 19.7171 19.4362 19.4355C19.7175 19.1543 19.875 18.7729 19.875 18.375V5.625ZM13.125 15.375V9.75C13.125 8.30025 11.9513 7.125 10.5 7.125C9.04875 7.125 7.875 8.30025 7.875 9.75V15.375C7.875 15.789 8.2125 16.125 8.625 16.125C9.0375 16.125 9.375 15.789 9.375 15.375V13.5H11.625V15.375C11.625 15.789 11.9625 16.125 12.375 16.125C12.7875 16.125 13.125 15.789 13.125 15.375ZM14.625 7.875V15.375C14.625 15.789 14.9625 16.125 15.375 16.125C15.7875 16.125 16.125 15.789 16.125 15.375V7.875C16.125 7.461 15.7875 7.125 15.375 7.125C14.9625 7.125 14.625 7.461 14.625 7.875ZM9.375 12H11.625V9.75C11.625 9.12862 11.1225 8.625 10.5 8.625C9.8775 8.625 9.375 9.12862 9.375 9.75V12Z" fill="#200B56"/>
</g>
<defs>
<clipPath id="clip0_6001_84325">
<rect width="24" height="24" fill="white"/>
</clipPath>
</defs>
</svg>
