<svg xmlns="http://www.w3.org/2000/svg" width="90" height="30" fill="none" viewBox="0 0 90 30"><path fill="#1f1f1f" d="M32.907 29.6a.135.135 0 0 1-.12.194h-17.78C6.682 29.794 0 23.187 0 14.897S6.683 0 15.006 0s15.006 6.607 15.006 14.897c0 2.049-.409 3.995-1.148 5.763a.24.24 0 0 1-.222.147h-6.786a.143.143 0 0 1-.113-.232c1.227-1.536 1.954-3.51 1.954-5.678 0-4.965-3.813-8.906-8.69-8.906-4.88 0-8.693 3.94-8.693 8.906s4.21 8.907 9.09 8.907h14.421c.114 0 .219.064.27.166zm3.002-9.608h2.794l1.383 4.921q.123.466.24.933.115.465.198.85.096.453.178.864h.028a75 75 0 0 1 .363-1.714q.102-.466.24-.933l1.382-4.921h2.836v9.802H43.7v-5.62q0-.303.008-.652a10 10 0 0 1 .034-.665q.013-.357.04-.713h-.027q-.068.344-.137.672l-.143.603-.144.59-1.685 5.785h-1.904L38.1 24.01a8 8 0 0 1-.151-.59q-.069-.315-.137-.603-.069-.33-.137-.672h-.027q.013.357.04.713.015.315.028.665t.014.651v5.621h-1.822zM49.933 30q-.876 0-1.554-.288a3.3 3.3 0 0 1-1.144-.788 3.3 3.3 0 0 1-.705-1.186 4.4 4.4 0 0 1-.24-1.467q0-.782.254-1.46.252-.68.712-1.173.458-.494 1.095-.781a3.4 3.4 0 0 1 1.404-.288q.85 0 1.493.308.645.309 1.082.871t.665 1.337q.225.774.225 1.72h-5.095q.11.823.555 1.29.445.465 1.24.465.547 0 .876-.233a1.33 1.33 0 0 0 .48-.63h1.835q-.095.465-.35.884a2.7 2.7 0 0 1-.657.734q-.405.315-.952.5a3.8 3.8 0 0 1-1.219.185m-.15-5.991q-.74 0-1.123.404-.384.405-.507 1.104h3.123q-.041-.672-.446-1.09-.404-.418-1.047-.418m3.479-1.249h.972v-2.193h1.822v2.194h1.205v1.234h-1.205v3.729q0 .398.191.548.192.15.507.151h.356q.096 0 .192-.014v1.371q-.138.015-.301.014-.151.014-.37.014h-.493q-.343 0-.678-.076a1.7 1.7 0 0 1-.61-.267 1.4 1.4 0 0 1-.445-.521q-.17-.33-.17-.823v-4.126h-.973zm6.478 1.125h.04q.315-.603.713-.905.396-.3 1.013-.301.288 0 .439.055v1.63h-.041q-.919-.094-1.507.398-.59.494-.589 1.605v3.427h-1.863v-7.033h1.795zm2.74-3.893h1.862v1.672H62.48zm0 2.769h1.862v7.033H62.48zM68.533 30a3.7 3.7 0 0 1-1.5-.288 3.3 3.3 0 0 1-1.13-.788 3.5 3.5 0 0 1-.719-1.18 4.1 4.1 0 0 1-.253-1.46q0-.78.246-1.46.248-.678.705-1.179a3.3 3.3 0 0 1 1.103-.788q.644-.288 1.452-.288.684 0 1.233.192.548.192.951.527.405.337.658.81.253.472.35 1.048h-1.823a1.4 1.4 0 0 0-.431-.774q-.337-.309-.856-.309-.85 0-1.274.597-.425.596-.425 1.624 0 1 .405 1.61.403.612 1.266.611.576 0 .945-.295.37-.295.466-.898h1.794a2.8 2.8 0 0 1-.924 1.899q-.405.363-.973.576-.567.213-1.266.213M46.445 16.987l-1.6-1.782c.88-1.043 1.298-2.41 1.298-3.714 0-2.625-1.704-5.496-5.429-5.496-3.724 0-5.428 2.87-5.428 5.496 0 2.625 1.689 5.496 5.428 5.496 1.122 0 2.057-.26 2.82-.692l.629.692zm-5.73-1.92c-2.183 0-3.32-1.775-3.32-3.576s1.117-3.485 3.32-3.485c2.292 0 3.32 1.684 3.32 3.485 0 .776-.18 1.546-.573 2.173l-.714-.795H40.42l1.743 1.918a3.6 3.6 0 0 1-1.449.28m10.866 1.326v-.823h-.041q-.357.48-.816.747-.459.268-1.198.268-1.178 0-1.808-.686t-.63-1.851v-4.69h1.85v4.375q0 .615.28.946.28.329.883.329.658 0 1.035-.446.375-.446.376-1.145V9.36h1.863v7.033zm7.15 0a.9.9 0 0 1-.137-.33 4 4 0 0 1-.083-.452h-.027a2.5 2.5 0 0 1-.308.377 1.6 1.6 0 0 1-.411.295 2.4 2.4 0 0 1-.569.198q-.33.075-.78.076-1.082 0-1.767-.548t-.685-1.605q0-.575.22-.973.218-.397.602-.658a3 3 0 0 1 .897-.405q.513-.143 1.103-.226.876-.123 1.287-.26.411-.138.411-.535a.73.73 0 0 0-.294-.61q-.295-.226-.884-.227-.657 0-.986.24-.33.24-.37.748h-1.657q.013-.466.205-.885a2.1 2.1 0 0 1 .562-.733q.37-.316.931-.507.561-.192 1.329-.192 1.574 0 2.267.678.691.679.692 1.913v3.579q0 .795.246.973v.068zm-1.863-1.139q.397 0 .705-.116.308-.117.52-.302a1.25 1.25 0 0 0 .322-.425q.11-.24.11-.5v-1.056q-.246.15-.596.24t-.705.171q-.74.165-1.096.384-.356.22-.356.713 0 .494.301.693.302.198.795.199m6.136-4.936h.041q.357-.576.856-.864.5-.288 1.226-.288.548 0 .993.198.445.2.76.549t.494.83q.177.48.178 1.055v4.593h-1.863v-4.319q0-.575-.315-.932t-.904-.357q-.616 0-1.02.446-.405.446-.404 1.172v3.99h-1.863V9.36h1.821zm4.876-.96h.972V7.165h1.822V9.36h1.206v1.234h-1.206v3.73q0 .396.192.547t.507.151h.356q.096 0 .192-.014v1.372q-.137.013-.302.013-.15.014-.37.014h-.493q-.342 0-.678-.075a1.7 1.7 0 0 1-.61-.268 1.4 1.4 0 0 1-.444-.52q-.172-.33-.172-.823v-4.127h-.972zm9.123 7.034v-.823h-.042q-.356.48-.815.747-.459.268-1.198.268-1.178 0-1.808-.686t-.63-1.851v-4.69h1.85v4.375q0 .615.28.946.28.329.883.329.658 0 1.035-.446t.376-1.145V9.36h1.863v7.033zm2.725-7.034h1.794v.946h.041q.288-.48.794-.81.507-.328 1.247-.328a2.08 2.08 0 0 1 1.945 1.234h.028q.356-.576.897-.905.54-.33 1.212-.33 1.11 0 1.712.666.603.664.603 1.83v4.73h-1.863v-4.414q0-.603-.28-.905-.282-.302-.802-.302-.59 0-.925.418-.336.419-.335 1.117v4.086h-1.863v-4.414q0-.603-.281-.905-.28-.302-.801-.302-.576 0-.918.418-.343.419-.343 1.117v4.086h-1.862z"/></svg>