<svg width="30" height="24" viewBox="0 0 30 24" fill="none" xmlns="http://www.w3.org/2000/svg">
<path d="M29.25 9.75C29.625 9.75 30 10.125 30 10.5V12C30 12.4219 29.625 12.75 29.25 12.75H26.25V15.75C26.25 16.1719 25.875 16.5 25.5 16.5H24C23.5781 16.5 23.25 16.1719 23.25 15.75V12.75H20.25C19.8281 12.75 19.5 12.4219 19.5 12V10.5C19.5 10.125 19.8281 9.75 20.25 9.75H23.25V6.75C23.25 6.375 23.5781 6 24 6H25.5C25.875 6 26.25 6.375 26.25 6.75V9.75H29.25ZM10.5 12C7.17188 12 4.5 9.32812 4.5 6C4.5 2.71875 7.17188 0 10.5 0C13.7812 0 16.5 2.71875 16.5 6C16.5 9.32812 13.7812 12 10.5 12ZM14.6719 13.5C18.1406 13.5 21 16.3594 21 19.8281V21.75C21 23.0156 19.9688 24 18.75 24H2.25C0.984375 24 0 23.0156 0 21.75V19.8281C0 16.3594 2.8125 13.5 6.28125 13.5H7.07812C8.10938 14.0156 9.28125 14.25 10.5 14.25C11.7188 14.25 12.8438 14.0156 13.875 13.5H14.6719Z" fill="#0E0E0E"/>
</svg>
